<svg xmlns="http://www.w3.org/2000/svg" xmlns:xlink="http://www.w3.org/1999/xlink" width="512" height="512" viewBox="0 0 512 512"><style>.food-item{opacity:0}#burger{animation:showBurger 12s cubic-bezier(.17,.67,.83,.67)infinite}#chicken{animation:showChicken 12s cubic-bezier(.17,.67,.83,.67)infinite}#coffee{animation:showCoffee 12s cubic-bezier(.17,.67,.83,.67)infinite}#fish{animation:showFish 12s cubic-bezier(.17,.67,.83,.67)infinite}@keyframes showBurger{0%{opacity:1}25%,50%,75%,100%{opacity:0}}@keyframes showChicken{25%{opacity:1}0%,50%,75%,100%{opacity:0}}@keyframes showCoffee{50%{opacity:1}0%,25%,75%,100%{opacity:0}}@keyframes showFish{75%{opacity:1}0%,25%,50%,100%{opacity:0}}.rotating{transform-origin:50% 50%;animation:spin 4s cubic-bezier(.17,.67,.83,.67)infinite}@keyframes spin{100%{transform:rotate(360deg)}}</style><circle id="outer-circle" fill="#F97242" cx="256" cy="256" r="200"/><path id="inner-circle" fill="#FFF" d="M256 358c-56.243 0-102-45.757-102-102s45.757-102 102-102 102 45.757 102 102-45.757 102-102 102zm0-200c-54.038 0-98 43.962-98 98 0 54.037 43.962 98 98 98 54.037 0 98-43.963 98-98 0-54.038-43.963-98-98-98z"/><g id="burger" class="sliding-item food-item" fill-rule="evenodd" clip-rule="evenodd" fill="#FFF"><path d="M206 275.92c.46-1.054.93-2.1 1.38-3.163.61-1.445 1.802-2.07 3.306-2.363v-2.788c-2.008-.61-2.588-1.42-2.298-3.433.384-2.617 1.274-5.03 3.17-6.984.204-.21.33-.554.372-.85a60.48 60.48 0 0 0 .42-3.786c.02-.244-.188-.6-.4-.752-1.41-1.016-2.03-2.373-2.05-4.094-.076-6.13 2.673-10.953 6.958-15.035 5.23-4.985 11.574-8.003 18.408-10.046 9.704-2.904 19.606-3.59 29.65-2.423 7.554.88 14.814 2.81 21.572 6.365 4.96 2.602 9.35 5.907 12.485 10.66 2.12 3.2 3.213 6.72 3.125 10.584-.034 1.565-.615 2.82-1.812 3.835-.26.224-.46.68-.45 1.024.055 1.885.157 3.77.294 5.655.024.307.264.64.474.902 1.255 1.548 2.368 3.186 2.876 5.148.532 2.04.034 3.032-1.87 3.955-.186.088-.327.36-.38.58-.128.504-.182 1.022-.28 1.598.416.117.82.205 1.207.347 1.71.62 2.67 1.82 2.96 3.647.116.762.575 1.47.883 2.192v1.767c-.557 1.572-1.523 2.656-3.27 2.96-.265.048-.592.653-.606 1.015-.068 1.426-.005 2.86-.034 4.297-.05 2.587-1.86 4.843-4.39 5.4-.786.175-1.61.185-2.417.185-13.7.01-27.393.01-41.09 0-12.685 0-25.37.01-38.056 0-3.885 0-6.23-2.363-6.23-6.27v-2.646c-1.258-.538-2.266-1.358-2.515-2.706-.215-1.152-.896-2.03-1.392-3.018v-1.77zm49.98-26.56v-.038h41.206c1.41 0 1.768-.38 1.787-1.807.04-3.335-.98-6.338-2.852-9.063-2.894-4.224-6.912-7.112-11.404-9.39-6.816-3.457-14.11-5.205-21.69-5.92-8.905-.84-17.68-.186-26.288 2.256-6.353 1.797-12.298 4.45-17.25 8.943-3.902 3.544-6.515 7.76-6.456 13.25.016 1.323.45 1.767 1.75 1.767 13.735.005 27.47.005 41.2.005zm30.767 31.56c-.176.265-.322.577-.557.802-2.056 2.05-4.12 2.393-6.597.84-1.28-.79-2.114-.762-3.29.215-2.38 1.943-4.488 1.934-7.086.273-.415-.254-.815-.537-1.22-.8-1.46-.948-1.46-.94-2.838.126-2.62 2.05-5.12 2.02-7.7-.117-.568-.48-1.12-.98-1.72-1.486-1.344 1.563-2.794 2.832-4.864 3.135-2.192.312-3.7-.86-5.06-2.413-1.332 1.582-2.836 2.607-4.88 2.412-1.96-.196-3.283-1.573-4.665-2.794-1.48 1.543-2.93 2.813-5.144 2.86-2.348.06-3.474-1.58-4.733-3.24-2.793 2.52-5.677 3.915-8.9.995-.74.51-1.37 1.036-2.09 1.388-.714.35-1.515.517-2.374.8v2.06c0 2.306.94 3.224 3.266 3.224h59.546c6.733 0 13.472.01 20.205 0 1.665 0 2.827-.918 2.905-2.393.063-1.26.01-2.53.01-3.7-1.187-.46-2.29-.89-3.384-1.32-2.886 3.19-4.84 3.026-8.833-.87zm11.543-13.383c-2.92-.654-5.68-1.27-8.428-1.89-8.843-2.002-17.432-1.08-25.815 2.236-1.538.61-3.09 1.21-4.673 1.685-2.7.8-5.332.84-7.89-.723-1.344-.82-2.857-1.41-4.356-1.93-5.804-1.996-11.82-2.72-17.925-2.91-1.232-.033-2.47.016-3.703-.038a27.102 27.102 0 0 0-11.07 1.83c-.268.108-.568.543-.578.836-.044 1.333.024 2.666.024 4-.003.702.337 1.005 1.01.985 1.136-.034 2.272-.068 3.407-.117 1.647-.066 3.298-.193 4.945-.213 1.263-.015 2.527.107 3.79.142 2.753.067 5.507.116 8.264.16 1.943.03 3.93.3 5.82-.015 2.505-.415 4.902-.4 7.314.347 1.772.558 3.545.772 5.36.143.48-.166 1.026-.225 1.54-.21 4.94.142 9.877.342 14.823.464 3.7.092 7.4.11 11.106.126 3.18.005 6.362-.01 9.54-.068 1.974-.04 3.946-.166 5.914-.308.294-.02.753-.303.812-.542.3-1.255.5-2.534.768-3.99zm-86.01 10.317c-.575.332-1.026.518-1.378.81-.266.235-.596.646-.552.91.056.34.417.77.742.878 1.306.47 2.57.293 3.66-.615.47-.4.86-.89 1.315-1.31.822-.76 1.353-.8 2.248-.145.42.303.804.664 1.207.996 1.338 1.094 1.973 1.104 3.39.117.826-.566 1.644-1.182 2.545-1.602 1.45-.684 2.334-.41 3.343.82.33.4.617.84.938 1.25.793 1.035 1.703 1.19 2.76.39.54-.41 1.01-.917 1.488-1.405 1.635-1.67 2.514-1.72 4.328-.205.596.498 1.152 1.055 1.78 1.514 1.096.81 1.887.723 2.85-.244.39-.39.722-.84 1.093-1.25.99-1.094 1.9-1.2 3.057-.283.586.46 1.084 1.025 1.62 1.543 1.007.967 1.905 1.064 3.043.244.57-.42 1.06-.957 1.548-1.484 1.392-1.475 2.637-1.64 4.307-.48.58.41 1.1.91 1.64 1.378 1.564 1.37 2.53 1.408 4.122.12 2.388-1.905 3.535-1.974 6.147-.294 2.78 1.797 2.95 2.55 6.24-.215.974-.82 2.067-.946 3.195-.487.78.313 1.514.752 2.256 1.143 1.197.635 1.744.566 2.7-.37.333-.314.636-.655.978-.948 1.41-1.24 2.935-1.182 4.248.166.43.44.786.957 1.206 1.406.86.937 1.754.897 2.535-.1 1.387-1.757 2.446-1.99 4.478-1.034.532.244 1.055.537 1.61.684.29.078.738-.05.948-.254.138-.146.035-.605-.062-.89-.087-.282-.312-.526-.48-.79.905.156 1.76.342 2.614.44.265.02.748-.167.792-.343.068-.293-.054-.713-.254-.947-.27-.293-.684-.48-1.055-.674-.43-.225-.89-.41-1.333-.605.283-.18.547-.103.728-.195.386-.195.723-.48 1.084-.728-.308-.327-.566-.85-.933-.942-.406-.107-.94.117-1.378.293-.562.234-1.055.737-1.626.825-1.886.303-3.785.605-5.68.645-2.437.05-4.873-.254-7.314-.225-3.442.05-6.89.41-10.327.347-5.304-.098-10.597-.46-15.895-.674-1.362-.054-2.798-.24-4.082.088-2.563.656-5.005.485-7.485-.27-1.5-.465-3.037-.704-4.614-.31-2.108.533-4.242.445-6.397.28-2.654-.21-5.318-.29-7.98-.36-1.39-.036-2.814.242-4.178.052-2.003-.282-3.937-.043-5.915.143-2.203.205-4.488.537-6.466-1.035-.228-.18-.83.098-1.26.166.067.347.08.718.22 1.03.106.25.367.43.634.728-.434.088-.824.068-1.105.244-.385.234-.685.605-1.023.918.324.264.607.645.98.762.623.213 1.302.252 2.158.388zm-.675-14.37c1.504-.532 2.766-1.045 4.07-1.42 4.914-1.39 9.936-1.58 14.994-1.2 8.15.604 16.18 1.683 23.492 5.73.527.293 1.24.38 1.865.356 2.46-.068 4.688-1.025 6.885-1.997 5.518-2.432 11.362-3.164 17.3-3.486 5.015-.27 9.81 1.01 14.63 2.065 1.825.4 3.622.903 5.585 1.392-.82-1.978-1.797-3.72-3.447-4.792-.834-.547-2.094-.58-3.168-.596a6535.877 6535.877 0 0 0-35.435-.332c-6.9-.044-13.8.05-20.698-.01-7.26-.06-14.516-.234-21.77-.347-1.457-.02-2.593.57-3.2 1.958-.365.83-.693 1.674-1.106 2.68zm85.083-10.954H215.52c-.108 1.147-.22 2.26-.33 3.394l81.708.41-.21-3.804z"/><path d="M266.176 234.32c-.444-.282-1.09-.47-1.182-.812-.098-.347.244-1.02.59-1.235a4.3 4.3 0 0 1 1.97-.635c.41-.027.84.417 1.264.652-.23.4-.36.933-.698 1.17-.538.373-1.207.55-1.944.86zm-29.38-2.576c.776.486 1.616.854 2.24 1.445.608.574.284 1.397-.538 1.34-.85-.05-1.727-.4-2.493-.802-.298-.16-.524-.858-.435-1.224.07-.29.676-.443 1.226-.762zm14.6-6.936c.39.112.98.203 1.484.464.283.15.6.6.566.88-.03.28-.47.71-.747.72a9.59 9.59 0 0 1-2.53-.2c-.294-.065-.694-.62-.66-.905.034-.295.51-.588.84-.784.24-.134.57-.105 1.045-.175zm-2.588 8.782c-.747-.367-1.49-.61-2.09-1.053-.625-.466-.435-1.113.313-1.394.876-.33 2.49.06 3.044.796.166.223.298.767.2.85-.4.315-.9.505-1.465.8zm14.008-5.78c-.77-.385-1.597-.678-2.275-1.168-.584-.425-.39-1.023.334-1.157 1.152-.212 2.178.13 3.018.933.162.16.284.67.2.737-.33.255-.75.402-1.274.656zm20.098 5.872c-.78-.4-1.636-.708-2.334-1.228-.6-.442-.405-1.016.347-1.15 1.152-.205 2.163.17 2.988.986.166.16.283.662.186.747-.282.26-.682.39-1.185.645zm-11.334-3.967c-.556-.344-1.542-.64-1.586-1.045-.098-.87.87-.96 1.548-1.05a4.283 4.283 0 0 1 1.616.098c.313.083.547.45.815.69-.244.27-.444.643-.747.785-.454.205-.986.25-1.484.364-.054.053-.107.104-.16.158zm4.747 5.265c-.762-.348-1.484-.624-2.144-1.004-.23-.127-.47-.603-.39-.786.11-.256.53-.57.785-.542.757.083 1.543.217 2.227.535.37.173.557.757.825 1.152-.41.202-.815.407-1.303.644zm-36.95-5.84c-.494-.297-.94-.42-1.063-.69-.09-.205.146-.757.38-.874a15.58 15.58 0 0 1 2.55-1c.215-.065.68.19.776.406.09.205-.063.693-.264.82-.756.5-1.576.9-2.38 1.34zm18.543.66c.434.26.824.488 1.215.718-.303.38-.522.938-.918 1.1-.66.277-1.426.365-2.153.406-.273.015-.81-.322-.806-.488.005-.32.24-.776.513-.92.646-.34 1.364-.528 2.15-.816zm-27.4.576c.468.27.86.498 1.25.728-.3.378-.526.945-.915 1.1-.697.272-1.488.346-2.25.395-.242.013-.706-.293-.716-.478-.02-.286.186-.732.43-.86.67-.354 1.41-.58 2.2-.887z"/></g><path id="coffee" class="sliding-item food-item" d="M318.535 294.364c-12.214.09-24.43.04-36.646.04h-1.055c2.317-2.987 4.66-5.914 6.88-8.932.552-.75 1.005-1 1.915-.882 5.8.752 11.06-.703 15.413-4.563 7.243-6.422 10.366-14.607 9.36-24.235-.592-5.637-4.02-8.872-9.68-9.24-2.387-.156-4.807.194-7.287.318 0-.62-.004-1.367 0-2.113.02-2.89-.51-3.423-3.37-3.422-12.125.002-24.252 0-36.38.002-13.41 0-26.82 0-40.23.006-2.09 0-2.9.705-2.895 2.557.02 8.166.706 16.263 2.66 24.212 2.426 9.875 6.444 18.9 14.106 25.938.046.042.037.144.084.352h-1.435c-12.17 0-24.34.045-36.512-.038-2.603-.02-4.447.796-5.475 3.228v2.39c.113.228.25.445.34.68.795 2.112 2.3 3.29 4.555 3.51 9.38.904 18.758 1.822 28.14 2.707 1.053.1 1.822.44 2.36 1.41 1.174 2.12 3.03 3.122 5.455 3.122 18.06-.006 36.12-.01 54.182 0 2.53.002 4.36-1.05 5.7-3.215.376-.607 1.274-1.173 1.987-1.247 9.37-.975 18.75-1.9 28.134-2.74 2.78-.25 4.23-1.86 5.165-4.228v-2.39c-1.034-2.418-2.856-3.247-5.472-3.23zm-22.292-33.803c.39-2.662.585-5.355.927-8.03.05-.38.4-1.01.66-1.04 2.573-.26 5.178-.7 7.734-.525 2.722.186 4.242 2.122 4.59 5.344.875 8.066-1.753 14.894-7.71 20.362-2.913 2.674-6.485 3.88-10.446 3.878-.427 0-.854-.05-1.494-.088 3.002-6.495 4.746-13.096 5.74-19.9zm-69.804 20.15c-3.904-7.28-5.85-15.15-6.8-23.284-.448-3.858-.647-7.745-.973-11.775h74.443c0 .8.028 1.574-.004 2.346-.377 9.24-1.61 18.33-4.997 27.008-2.494 6.392-5.955 12.146-11.308 16.6-.306.254-.633.483-.94.735-1.842 1.51-3.85 2.163-6.328 2.125-9.428-.146-18.86-.088-28.29-.034-1.403.01-2.573-.345-3.722-1.087-4.9-3.162-8.372-7.57-11.085-12.633zm92.08 19.205c-7.44.766-14.884 1.477-22.327 2.197-2.07.2-4.145.363-6.21.598-2.213.252-3.826 1.396-5.03 3.288-.354.556-1.223 1.11-1.858 1.113-18.063.057-36.128.056-54.192-.005-.637-.002-1.514-.55-1.862-1.106-1.34-2.14-3.21-3.138-5.685-3.366-9.298-.86-18.59-1.78-27.878-2.723-.47-.047-.897-.526-1.343-.805l.183-.366h127.296l.25.356c-.45.284-.875.77-1.345.818zM241.28 219.52c2.6 4.353 2.422 7.717-.613 11.78-1.02 1.363-.55 3.094.98 3.516 1.027.284 1.81-.166 2.43-.958 3.445-4.426 4.295-9.255 1.94-14.412-.91-1.995-2.24-3.8-3.39-5.686-2.316-3.8-2.034-6 .973-9.225.47-.502.692-1.59.498-2.25-.19-.65-1.06-1.1-1.7-1.7-.848.49-1.51.755-2.024 1.192-3.43 2.91-4.54 7.813-2.55 11.94.972 2.022 2.3 3.87 3.456 5.803zm14.055.27c2.43 4.104 2.195 7.66-.7 11.44-.893 1.166-.84 2.37.14 3.17.98.8 2.313.725 3.105-.51 1.107-1.726 2.217-3.54 2.837-5.473 1.237-3.856.283-7.51-1.783-10.9-1.058-1.736-2.25-3.398-3.188-5.195-1.42-2.72-.834-5.427 1.412-7.44.23-.205.586-.4.636-.65.14-.7.4-1.54.142-2.11-.278-.61-1.096-.975-1.746-1.502-.8.475-1.454.75-1.97 1.188-3.67 3.12-4.52 8.388-2.034 12.918.955 1.738 2.13 3.356 3.145 5.066zm14.492 1.164c1.78 3.447 1.263 6.752-.953 9.852-.23.323-.528.605-.716.95-.772 1.415.243 3.13 2.283 3.134.322-.246 1.035-.615 1.516-1.18 3.615-4.255 4.19-10.07 1.45-15.128-1.074-1.978-2.425-3.803-3.525-5.767-1.714-3.063-1.22-5.724 1.368-8.096 1.02-.936 1.16-2.1.372-3.054-.777-.94-1.972-1.045-3.072-.208-1.744 1.33-2.933 3.067-3.507 5.18-.907 3.327-.15 6.375 1.666 9.23 1.067 1.678 2.206 3.32 3.116 5.08z" fill="#FFF"/><g id="fish" class="sliding-item food-item" fill="#FFF"><path d="M312.093 246.775c-1.96-1.94-4.018-3.82-6.23-5.46-10.278-7.613-21.947-10.854-34.644-10.758-.64.005-1.4-.167-1.898-.534-6.272-4.6-13.153-8.064-20.358-10.908-.634-.25-1.73-.157-2.208.25-.48.408-.765 1.493-.594 2.137.958 3.604 2.074 7.167 3.15 10.74.172.567.42 1.11.67 1.76-10.292 3.084-19.788 7.58-28.504 13.563-1.34-1.084-2.554-2.17-3.87-3.117-6.503-4.673-13.78-7.755-21.308-10.327-1.282-.435-2.082.146-2.804 1.06v1.465c.64 1.52 1.27 3.047 1.926 4.563 2.895 6.69 5.06 10.036 10.196 15.776-1.127 1.363-2.303 2.693-3.375 4.103-3.493 4.59-6.125 9.656-8.244 15.003-.146.37-.335.722-.503 1.082v1.466c.746.772 1.483 1.435 2.725 1.013 7.417-2.514 14.578-5.56 21.025-10.08 1.39-.976 2.67-2.1 4.052-3.196 7.064 5.08 14.775 8.936 22.714 11.763-1.194 4.03-2.364 7.95-3.512 11.876-.274.937-.31 1.87.54 2.577.806.67 1.65.46 2.522.102 6.45-2.635 12.66-5.72 18.428-9.654.392-.27.965-.41 1.442-.388 2.354.117 4.702.393 7.057.463 12.933.39 24.647-3.288 35.097-10.853 5.368-3.886 10.26-8.286 12.91-14.616v-1.464c-1.385-3.647-3.678-6.697-6.407-9.4zm-40.704 32.448c-2.68-.07-5.358-.313-8.027-.566-1.193-.113-2.172.076-3.18.805-4.463 3.227-9.33 5.75-14.348 7.99-.17.077-.356.125-.837.29.7-2.022 1.282-3.82 1.952-5.587.475-1.25 1.043-2.47 1.614-3.68.845-1.796.438-2.812-1.465-3.44-7.956-2.63-15.43-6.23-22.328-11.008-.868-.602-1.69-1.27-2.562-1.868-.873-.604-1.817-.644-2.553.15-4.665 5.01-10.658 7.902-16.767 10.62-1.21.54-2.454 1.002-3.877 1.58.177-.488.257-.788.39-1.063 2.688-5.563 5.877-10.772 10.466-15.014 1.09-1.012 1.083-2.26-.056-3.148-5.29-4.13-8.166-9.9-10.91-15.83.177-.046.305-.128.388-.095 6.222 2.437 12.294 5.16 17.536 9.41.974.793 1.833 1.727 2.732 2.61.986.97 1.82 1.095 2.925.3 9.264-6.68 19.46-11.388 30.44-14.454 1.777-.496 2.117-1.51 1.422-3.25-1.173-2.938-2.23-5.92-3.324-8.888-.092-.25-.106-.53-.197-1.013 1.044.482 1.916.875 2.78 1.284 5.08 2.41 9.964 5.135 14.43 8.59.513.396 1.346.56 2.023.54 5.024-.132 9.99.293 14.892 1.416.267.06.522.173.737.246-8.38 13.758-8.405 27.477-.11 41.367a48.514 48.514 0 0 1-14.196 1.702zm40.475-18.256c-5.688 6.933-12.953 11.738-21.28 14.997-.84.328-1.15-.01-1.554-.592-3.865-5.59-5.646-11.813-5.707-18.545.104-6.828 1.932-13.08 5.902-18.654.36-.506.606-.92 1.443-.613 8.417 3.084 15.76 7.757 21.276 14.893 3.594 4.647 3.484 4.17-.08 8.514z"/><path d="M297.076 249.096c-2.135-.03-3.903 1.656-3.965 3.778-.06 2.177 1.68 4 3.84 4.03a3.92 3.92 0 0 0 3.97-3.907 3.907 3.907 0 0 0-3.842-3.9z"/></g><g id="pizza" class="sliding-item food-item" fill-rule="evenodd" clip-rule="evenodd" fill="#FFF"><path d="M213 1c17.138 8.094 34.712 15.384 51.343 24.412 113.63 61.683 195.89 152.056 246.54 271.098.646 1.52 1.408 2.994 2.117 4.49v5c-2.73 2.008-5.19 4.687-8.233 5.927C342.257 378.12 179.7 444.19 17.157 510.3c-1.79.728-3.44 1.792-5.157 2.7H1v-11c1.07-2.195 2.273-4.336 3.192-6.593C70.13 333.34 136.032 171.257 202.057 9.227c1.24-3.047 3.93-5.5 5.943-8.227h5zm233.79 317.346C394.987 202.394 311.61 118.99 195.65 67.204L23.56 490.422l423.23-172.076zM201.694 52.31c119.98 53.475 206.52 140.008 259.953 259.948 5.506-2.218 10.896-4.37 16.27-6.56 5.467-2.226 10.92-4.488 16.907-6.953C437.18 169.4 344.334 76.623 215.207 19.155L201.695 52.31z"/><path d="M292.8 350.256c-28.31.042-51.754-23.188-51.814-51.337-.062-29.22 23.127-52.647 52.128-52.665 28.33-.018 51.945 23.644 51.87 51.975-.076 28.92-23.207 51.98-52.184 52.025zm.218-16.024c19.797.015 35.97-16.107 35.955-35.842-.014-19.756-16.08-35.957-35.825-36.124-19.616-.165-36.07 16.103-36.16 35.748-.09 20.162 15.868 36.205 36.03 36.218zm-141.7 76.034c-26.57.125-48.094-21.132-48.283-47.685-.188-26.37 21.47-48.275 47.77-48.315 26.552-.04 48.145 21.367 48.23 47.816.084 26.676-21.093 48.06-47.717 48.187zm-.233-16.033c17.547.07 31.876-14.086 31.926-31.54.055-17.886-13.966-32.202-31.716-32.39-17.6-.184-32.172 14.25-32.224 31.916-.053 17.75 14.142 31.94 32.016 32.01zm127.958-213.856c0 26.075-21.68 47.682-47.81 47.646-26.56-.036-48.107-21.416-48.196-47.822-.09-26.394 21.498-48.123 47.87-48.18 26.66-.06 48.135 21.517 48.136 48.36zm-16.03-.56c-.064-17.654-14.49-31.85-32.296-31.777-17.315.07-31.724 14.622-31.653 31.97.073 17.763 14.37 32.01 32.103 31.987 17.715-.022 31.912-14.367 31.847-32.18z"/></g><path id="meat" class="sliding-item food-item" fill="#FFF" d="M211.073 300.88c-6.71-.872-11.144-5.493-11.07-11.454.086-7.01 6.96-12.35 13.738-10.63 1.58.4 3.115.97 4.66 1.49 1.514.513 2.734.33 3.92-.938 2.466-2.64 5.115-5.107 7.614-7.72.452-.47.6-1.272.783-1.95.134-.494-.003-1.068.15-1.553 3.433-10.998 6.747-22.036 10.39-32.963 2.516-7.542 6.058-14.638 10.942-20.98 5.45-7.078 12.31-12.018 21.276-13.594 16.01-2.814 33.418 4.95 37.554 23.71 2.93 13.3-.78 24.665-11.083 33.71-6.72 5.896-14.61 9.813-22.975 12.654-9.967 3.387-20.08 6.348-30.15 9.436-1.698.52-3.5.703-5.23 1.127-.463.11-.91.48-1.263.828-2.574 2.54-5.065 5.166-7.7 7.637-1.2 1.13-1.445 2.303-.977 3.76.445 1.385.933 2.758 1.348 4.152 1.818 6.107-1.72 12.39-7.874 14.023-5.842 1.55-12.11-2.242-13.59-8.238-.196-.785-.296-1.594-.462-2.506zm98.095-70.514c-.244-9.37-4.544-18.403-14.644-23.976-12.766-7.045-28.983-3.708-38.613 7.685-6.042 7.15-9.905 15.483-12.824 24.24-3.328 9.986-6.297 20.09-9.368 30.158-.177.58-.067 1.436.25 1.95 1.953 3.165 4.51 5.763 7.747 7.62.48.275 1.24.344 1.777.186 8.14-2.417 16.29-4.814 24.39-7.358 9.012-2.834 17.83-6.16 25.72-11.512 9.586-6.504 15.5-15.14 15.57-28.995zM232.22 273.51c-.012.006-.144.025-.22.102-2.606 2.584-5.296 5.094-7.78 7.793-1.783 1.934-3.818 2.31-6.177 1.682-1.74-.465-3.438-1.09-5.176-1.564-4.12-1.123-8.416 1.273-9.67 5.354-1.834 5.957 2.234 11.238 8.558 11.11 2.126-.044 2.312.142 2.258 2.245-.007.29-.02.582-.005.873.17 3.373 1.656 5.97 4.79 7.318 3.316 1.432 6.575 1.09 9.296-1.38 2.49-2.26 3.288-5.146 2.252-8.43-.35-1.11-.724-2.212-1.105-3.312-1.085-3.134-.94-5.944 1.976-8.13.692-.52 1.246-1.22 1.866-1.84 1.88-1.87 3.758-3.736 5.37-5.344-2.182-2.27-4.192-4.357-6.23-6.474z"/><g id="cheese" class="sliding-item food-item" fill="#FFF"><path d="M302.045 269.412h.006c0-5.658-.05-11.318.018-16.977.07-5.94-1.26-11.557-4.154-16.686-8.026-14.22-20.454-21.75-36.54-23.456-.713-.076-1.67.402-2.232.924a19851.373 19851.373 0 0 0-48.476 45.05c-.37.346-.682.957-.688 1.448-.053 4.41-.018 8.823-.04 13.234-.005 1.033.426 1.417 1.456 1.477 3.98.232 6.617 3.02 6.61 6.894-.004 3.86-2.617 6.603-6.64 6.873-1.046.07-1.438.483-1.427 1.503.03 2.78 0 5.562.013 8.344.007 1.42.41 1.78 1.852 1.64 2.91-.284 5.817-.59 8.725-.89 13.54-1.402 27.077-2.81 40.617-4.208 13.016-1.343 26.03-2.692 39.05-3.98 1.41-.14 1.89-.662 1.88-2.06-.054-6.377-.025-12.756-.025-19.135zm-86.703-12.342a30636.98 30636.98 0 0 1 44.98-41.814c.397-.368 1.107-.66 1.625-.598 14.836 1.754 26.4 8.645 33.844 21.835 2.186 3.868 3.436 8.068 3.82 12.705l-84.924 8.71c.3-.387.45-.643.658-.838zm84.33 31.266l-87.355 8.96V290.6c5.75-2.34 8.12-5.195 7.98-9.597-.133-4.195-2.84-7.256-7.962-8.93V260.47c29.064-2.98 58.157-5.965 87.337-8.958v36.824z"/><path d="M269.68 274.402c4.918.05 9.258-4.157 9.336-9.05.078-4.96-4.212-9.353-9.155-9.37-4.91-.017-9.212 4.22-9.26 9.12-.05 4.896 4.204 9.252 9.082 9.3zm.215-16.113c3.946.03 6.868 3.023 6.822 6.99-.046 3.952-3.02 6.85-6.997 6.82-3.942-.03-6.847-3.01-6.816-6.994.03-3.94 3.013-6.85 6.99-6.82zm15.958 26.472c2.958.05 5.762-2.648 5.826-5.608.064-3.048-2.65-5.862-5.684-5.896-3.046-.035-5.82 2.702-5.823 5.75-.005 2.975 2.685 5.7 5.678 5.752zm.09-9.204c2.026 0 3.426 1.397 3.437 3.43.01 2.033-1.368 3.445-3.396 3.472-2.038.028-3.47-1.342-3.508-3.358-.04-2.105 1.37-3.548 3.466-3.546zm-46.086 14.96c2.96.02 5.736-2.703 5.77-5.664.037-3.05-2.698-5.835-5.735-5.84-2.986-.006-5.72 2.677-5.77 5.66-.05 3.04 2.68 5.822 5.735 5.844zm.13-9.205c2.01.047 3.376 1.488 3.34 3.526-.036 2.025-1.455 3.397-3.493 3.38-2.03-.02-3.417-1.426-3.41-3.457.005-2.09 1.457-3.496 3.563-3.448zm34.76-56.418c-4.374-.016-7.522 3.253-7.55 7.837-.03 5.213 4.046 9.402 9.178 9.433 4.348.026 7.528-3.28 7.553-7.847.026-5.22-4.05-9.405-9.18-9.423zm1.488 15.09c-3.52.02-6.936-3.59-6.928-7.316.007-3.054 2.554-5.618 5.582-5.62 3.52 0 6.94 3.62 6.926 7.333-.013 3.078-2.515 5.59-5.583 5.605zm-31.21-6.813c-3.282.003-5.483 2.32-5.437 5.73.05 3.672 2.966 6.524 6.652 6.5 3.292-.02 5.487-2.332 5.443-5.733-.046-3.665-2.95-6.5-6.657-6.496zm1.048 10.123c-2.06-.015-4.29-2.283-4.364-4.44-.066-1.842 1.55-3.53 3.412-3.573 2.097-.047 4.405 2.3 4.434 4.51.024 1.85-1.633 3.516-3.485 3.503z"/></g><path id="carrot" class="sliding-item food-item" fill="#FFF" d="M273.582 228.29c2.046-6.082 2.793-12.06.84-18.173-.113-.354-.417-.747-.338-1.042.2-.735.57-1.424.87-2.132.633.363 1.676.603 1.828 1.11.673 2.24 1.43 4.542 1.52 6.847.14 3.56-.238 7.14-.394 10.63.137-.197.432-.545.642-.938 4.33-8.09 6.984-16.654 7.235-25.883.03-1.145.148-2.28 1.592-2.2 1.446.076 1.43 1.285 1.394 2.38-.292 8.88-2.692 17.21-6.584 25.146-.316.645-.61 1.3-1.037 2.216.427-.193.603-.22.692-.32 5.437-6.248 10.284-12.898 13.55-20.56.94-2.208 1.55-4.566 2.19-6.89.293-1.07.426-2.26 1.867-1.978 1.54.303 1.413 1.59 1.02 2.68-1.413 3.885-2.505 7.96-4.47 11.552-2.577 4.706-5.865 9.022-8.854 13.5-.327.49-.703.95-.832 1.678.47-.332.95-.646 1.402-1 6.43-5.01 13.142-9.543 20.923-12.225a27.225 27.225 0 0 1 5.22-1.256c.505-.068 1.39.698 1.615 1.272.13.328-.64 1.425-1.137 1.524-10.403 2.08-18.622 8.127-26.647 14.538-.67.535-1.3 1.117-1.75 2.01.526-.24 1.06-.464 1.575-.722 7.277-3.64 14.933-5.976 23.057-6.688.927-.08 1.86-.073 2.788-.122 1.086-.057 2.117.134 2.16 1.436.042 1.306-.96 1.462-2.056 1.567-3.202.306-6.432.53-9.58 1.136-6.23 1.204-12.058 3.556-17.47 7.048 1.222-.198 2.438-.438 3.667-.588 4.414-.545 8.79-.458 13.043 1.012.668.23 1.364.64 1.8 1.17.233.284.113 1.3-.157 1.46-.548.322-1.402.56-1.966.36-6.135-2.163-12.196-1.614-18.245.31-.23.072-.445.192-.66.287.4 1.9.97 3.735 1.142 5.606.43 4.63-1.05 8.804-3.483 12.67-3.18 5.05-7.556 9.017-11.972 12.91-15.374 13.557-32.043 25.41-48.907 36.998-2.757 1.895-5.46 3.9-8.37 5.536-2.343 1.32-4.872 2.516-7.47 3.143-5.175 1.25-9.34-2.94-8.138-8.137.548-2.37 1.43-4.816 2.758-6.832 13.52-20.504 27.604-40.603 43.94-59.002 2.994-3.37 6.282-6.552 9.802-9.36 4.96-3.96 10.65-6.063 17.165-4.637 1.017.225 2.006.586 3.225.95zm-19.575 50.653l18.126-15.415c-2.042-1.946-3.786-3.605-5.526-5.268-.358-.343-.9-.648-1.01-1.063-.187-.72-.103-1.513-.134-2.275.762.09 1.783-.1 2.24.323 2.125 1.957 4.093 4.085 6.548 6.593 2.37-3.546 4.8-6.557 6.53-9.926 2.4-4.664 2.228-9.502-.87-13.92-5.847-8.34-13.89-11.155-22.87-5.075-3.65 2.472-6.812 5.665-10.494 8.782 2.122 2.02 3.863 3.68 5.606 5.334.786.746 1.378 1.585.41 2.537-.965.955-1.792.33-2.536-.444-1.623-1.69-3.25-3.377-5.168-5.368l-18.083 22.474c.623.665.99 1.077 1.38 1.467.765.767 1.663 1.577.638 2.667-1.02 1.087-1.88.306-2.67-.483-.33-.33-.72-.604-1.237-1.032l-17.112 24.13c.455 1.69 3.205 2.256 1.668 4.105-1.47 1.768-2.337-.55-3.575-1.094-.683 1.01-1.474 1.978-2.045 3.063-1.462 2.773-3.188 5.482-4.133 8.435-1.1 3.43 1.412 5.817 4.915 4.87 2.116-.57 4.2-1.524 6.07-2.68 3.794-2.342 7.46-4.9 11.126-7.44 5.397-3.736 10.75-7.536 16.774-11.77-1.105-.796-2.108-1.29-2.75-2.077-.377-.46-.18-1.39-.24-2.106.76.022 1.773-.257 2.23.127.92.772 1.535 1.905 2.28 2.896 4.24-3.2 7.876-5.944 11.72-8.85-1.472-1.395-2.734-2.585-3.99-3.78-.777-.738-1.163-1.7-.17-2.343.49-.318 1.713-.147 2.193.272 1.435 1.253 2.668 2.74 4.165 4.33z"/><path id="bread" class="sliding-item food-item" fill="#FFF" d="M255.973 283.353c-9.35 0-18.7.066-28.048-.022-6.892-.062-13.602-1.19-19.832-4.33-6.986-3.52-10.18-8.983-9.6-16.36a27.383 27.383 0 0 1 4.11-12.5c3.755-6.03 9.11-10.254 15.304-13.517 8.672-4.567 18.053-6.606 27.705-7.49 11.77-1.076 23.46-.504 34.968 2.417 8.4 2.13 16.18 5.54 22.71 11.383 5.598 5.006 9.17 11.118 10.11 18.687.874 7.02-1.536 12.46-7.52 16.242-5.024 3.178-10.646 4.836-16.482 5.075-9.992.41-20.005.315-30.01.43-1.138.012-2.276 0-3.415 0v-.012zm-35.725-45.14c-2.495 1.567-4.8 2.846-6.92 4.38-5.346 3.86-9.27 8.808-11.094 15.252-2.823 9.98.527 16.542 10.266 20.09a40.943 40.943 0 0 0 13.914 2.48c19.722.08 39.444.085 59.165-.01 5.23-.023 10.374-.95 15.244-3.003 8.256-3.48 11.243-9.274 9.323-17.99-1.82-8.25-6.925-14.04-13.843-18.455-1.433-.915-2.96-1.683-4.574-2.592-1.37 6.435-2.64 12.588-4.035 18.712-.154.68-1.033 1.195-1.576 1.787-.46-.662-1.244-1.286-1.327-1.993-.802-6.78-1.51-13.572-2.177-20.37-.116-1.185-.493-1.83-1.728-2.06-2.884-.53-5.726-1.31-8.623-1.73-3.648-.522-7.335-.784-11.018-1.162-.124.542-.19.767-.224.997-1.18 8.18-2.33 16.363-3.583 24.532-.1.652-.89 1.2-1.36 1.794-.523-.6-1.402-1.143-1.514-1.813-.81-4.842-1.46-9.71-2.163-14.57-.52-3.592-1.036-7.185-1.563-10.834-6.996.326-13.7 1.125-20.23 3.02-.535.156-1.09 1.17-1.167 1.84-.78 6.723-1.473 13.457-2.167 20.19-.1.99-.136 2.047-1.41 2.136-1.28.09-1.493-.948-1.67-1.93-.064-.352-.16-.7-.234-1.05l-3.718-17.645zm35.536 7.403c.148-.006.296-.01.444-.017l1.98-13.915h-4.42l1.996 13.93zm29.63-9.764l1.192 11.41c.093.007.186.016.278.024L289 237.17c-1.225-.45-2.27-.836-3.585-1.318zm-60.316 11.36c.103-.02.206-.04.31-.057l1.173-11.336c-1.363.52-2.405.912-3.58 1.36l2.1 10.03z"/><path class="rotating" fill="#FFF" d="M413.82 200.113c-4.557-11.594-13.4-19.69-21.505-19.69-1.404 0-2.76.248-4.034.728-26.89-47.305-77.415-76.65-132.185-76.65-64.783 0-122.497 40.93-143.612 101.846a2 2 0 0 0 3.78 1.31c20.558-59.307 76.752-99.154 139.833-99.154 53.36 0 102.578 28.6 128.75 74.698-2.614 2.252-4.406 5.762-5.155 10.234-.967 5.784-.083 12.575 2.49 19.122 4.56 11.594 13.4 19.69 21.508 19.69 1.46 0 2.872-.263 4.192-.782 4.408-1.733 7.403-6.075 8.433-12.227.967-5.784.083-12.574-2.492-19.122zm-1.454 18.46c-.788 4.71-2.9 7.966-5.95 9.165a7.43 7.43 0 0 1-2.73.505c-6.397 0-13.877-7.215-17.784-17.155-2.313-5.882-3.118-11.918-2.268-16.997.79-4.71 2.902-7.963 5.95-9.162a7.437 7.437 0 0 1 2.73-.505c6.397 0 13.876 7.214 17.784 17.155 2.313 5.882 3.12 11.92 2.268 16.997zm-13.893 85.037a1.998 1.998 0 0 0-2.545 1.234C375.37 364.152 319.175 404 256.094 404c-54.198 0-103.312-29.415-129.108-75.315 2.962-2.368 4.844-6.27 5.377-11.27.622-5.83-.666-12.557-3.625-18.94a2 2 0 0 0-3.63 1.684c2.66 5.73 3.824 11.71 3.277 16.83-.38 3.55-1.547 6.33-3.354 8.085-3.39-6.45-6.33-13.2-8.77-20.23a2 2 0 1 0-3.78 1.31 150.712 150.712 0 0 0 9.03 20.816c-2.71.605-5.93-.243-9.257-2.5-4.26-2.892-8.072-7.643-10.73-13.38a2 2 0 0 0-3.63 1.684c2.96 6.384 7.262 11.712 12.114 15.005 3.322 2.254 6.664 3.4 9.77 3.4a11.69 11.69 0 0 0 3.694-.586C149.96 377.767 200.416 408 256.095 408c64.784 0 122.498-40.93 143.613-101.845a2 2 0 0 0-1.234-2.545z"/></svg>